<?xml version="1.0" encoding="UTF-8"?>
<svg id="katman_1" xmlns="http://www.w3.org/2000/svg" version="1.1" viewBox="0 0 340.89 511.34">
  <!-- Generator: Adobe Illustrator 30.5.1, SVG Export Plug-In . SVG Version: 2.1.4 Build 3)  -->
  <defs>
    <style>
      .st0 {
        fill: #1d1d1b;
      }
    </style>
  </defs>
  <path class="st0" d="M298.26,255.68c-23.53,0-42.6-19.08-42.6-42.6s-19.06-42.63-42.6-42.63h-101.33c-10.01,0-19.2,3.45-26.48,9.24V42.6C85.23,19.1,66.13,0,42.6,0S0,19.1,0,42.6v426.13c0,23.53,19.08,42.6,42.6,42.6h170.45c23.55,0,42.6-19.08,42.6-42.6s19.08-42.6,42.6-42.6,42.63-19.08,42.63-42.63v-85.21c0-23.55-19.08-42.6-42.63-42.6h0ZM255.66,383.5c0,23.55-19.06,42.63-42.6,42.63h-85.21c-23.55,0-42.6-19.08-42.6-42.63v-137.06c7.28,5.79,16.47,9.24,26.48,9.24h101.33c23.55,0,42.6,19.06,42.6,42.6v85.21h0Z"/>
</svg>