<?xml version="1.0" encoding="UTF-8"?>
<svg id="katman_1" xmlns="http://www.w3.org/2000/svg" version="1.1" viewBox="0 0 512 511.98">
  <!-- Generator: Adobe Illustrator 30.5.1, SVG Export Plug-In . SVG Version: 2.1.4 Build 3)  -->
  <defs>
    <style>
      .st0 {
        fill: #1d1d1b;
      }
    </style>
  </defs>
  <path class="st0" d="M512,153.58v307.19c0,28.28-22.93,51.21-51.21,51.21s-51.19-22.93-51.19-51.21V153.58c0-28.26-22.92-51.19-51.19-51.19s-51.21,22.93-51.21,51.19v307.19c0,28.28-22.92,51.21-51.19,51.21s-51.19-22.93-51.19-51.21V153.58c0-28.26-22.93-51.19-51.21-51.19s-51.19,22.93-51.19,51.19v307.19c0,28.28-22.92,51.21-51.19,51.21S0,489.06,0,460.78V51.19C0,22.92,22.93,0,51.21,0s51.19,22.92,51.19,51.19c0-28.27,22.92-51.19,51.2-51.19s51.21,22.92,51.21,51.19,22.92,51.19,51.19,51.19,51.19-22.92,51.19-51.19S330.13,0,358.4,0s51.19,22.92,51.19,51.19,22.92,51.19,51.19,51.19,51.21,22.93,51.21,51.19h0Z"/>
</svg>