<?xml version="1.0" encoding="UTF-8"?>
<svg id="katman_1" xmlns="http://www.w3.org/2000/svg" version="1.1" viewBox="0 0 409.61 512">
  <!-- Generator: Adobe Illustrator 30.5.1, SVG Export Plug-In . SVG Version: 2.1.4 Build 3)  -->
  <defs>
    <style>
      .st0 {
        fill: #1d1d1b;
      }
    </style>
  </defs>
  <path class="st0" d="M409.61,358.4c0,28.28-22.92,51.2-51.2,51.2s-51.21,22.92-51.21,51.2-22.92,51.21-51.2,51.21h-102.41c-28.28,0-51.2-22.93-51.2-51.21v-255.99h-51.2c-28.28,0-51.21-22.93-51.21-51.21s22.93-51.2,51.21-51.2h51.2v-51.2c0-28.28,22.92-51.2,51.2-51.2s51.21,22.92,51.21,51.2v51.2h153.6c28.28,0,51.2,22.93,51.2,51.2s-22.92,51.21-51.2,51.21h-153.6v153.6c0,28.28,22.92,51.2,51.2,51.2s51.2-22.92,51.2-51.2,22.93-51.21,51.21-51.21,51.2,22.93,51.2,51.21h0Z"/>
</svg>